<svg width="131" height="95" viewBox="0 0 131 95" fill="none" xmlns="http://www.w3.org/2000/svg">
<g clip-path="url(#clip0_906_8)">
<path d="M11.7487 46.1357C18.68 46.1357 23.4943 51.174 23.4943 58.1463C23.4943 65.1186 18.68 70.1569 11.7487 70.1569C4.81732 70.1569 0 65.1217 0 58.1463C0 51.171 4.81428 46.1357 11.7487 46.1357ZM11.7487 68.2198C17.6837 68.2198 21.3772 63.8293 21.3772 58.1372C21.3772 52.445 17.6837 48.0545 11.7487 48.0545C5.81358 48.0545 2.12618 52.4634 2.12618 58.1463C2.12618 63.8293 5.80751 68.2198 11.7487 68.2198Z" fill="black"/>
<path d="M27.0601 46.7158H33.6087C37.0744 46.7158 40.9258 47.5866 40.9258 52.7532C40.9258 55.0783 39.5468 56.9512 36.8496 57.5012V57.5654C39.8354 57.7915 41.9221 59.9852 41.9221 63.1811C41.9221 68.4455 37.3963 69.5759 34.3134 69.5759H27.0601V46.7158ZM29.1862 56.5968H33.5814C37.9795 56.5968 38.8148 54.1739 38.8148 52.7532C38.8148 49.5573 36.5671 48.6529 33.8699 48.6529H29.1802L29.1862 56.5968ZM29.1862 67.6389H34.0461C39.0183 67.6389 39.8171 64.8615 39.8171 63.2483C39.8171 59.8569 37.0561 58.5339 34.3498 58.5339H29.1862V67.6389Z" fill="black"/>
<path d="M45.561 46.7158H51.5326C53.3307 46.7158 59.6212 46.7158 59.6212 52.7226C59.6212 57.0796 56.3134 58.2773 53.8106 58.5981L60.423 69.5759H58.0144L51.6358 58.7264H47.6872V69.5759H45.561V46.7158ZM47.6872 56.7985H52.1795C56.6415 56.7985 57.5071 54.3114 57.5071 52.7318C57.5071 51.1522 56.6415 48.6621 52.1795 48.6621H47.669L47.6872 56.7985Z" fill="black"/>
<path d="M72.5426 46.7158H74.7204L84.2852 69.5759H81.9099L79.4375 63.505H67.4094L64.8398 69.5759H62.6255L72.5426 46.7158ZM73.5389 49.0409L68.2416 61.5679H78.669L73.5389 49.0409Z" fill="black"/>
<path d="M2.93733 71.5596H9.48597C12.6935 71.5596 16.8031 72.8184 16.8031 77.5969C16.8031 81.7308 13.5287 83.5701 9.96588 83.5701H5.0544V94.4105H2.92822L2.93733 71.5596ZM5.06351 81.6422H9.86868C12.2773 81.6422 14.686 80.6095 14.686 77.6061C14.686 74.6669 12.1801 73.5058 9.74111 73.5058H5.0544L5.06351 81.6422Z" fill="black"/>
<path d="M20.7183 71.5596H26.6898C28.4849 71.5596 34.7784 71.5596 34.7784 77.5633C34.7784 81.9233 31.4707 83.118 28.9678 83.4418L35.5803 94.4105H33.1716L26.7931 83.564H22.8444V94.4105H20.7183V71.5596ZM22.8444 81.6422H27.3368C31.7987 81.6422 32.6674 79.1552 32.6674 77.5725C32.6674 75.9898 31.7926 73.4967 27.3368 73.4967H22.8384L22.8444 81.6422Z" fill="black"/>
<path d="M49.3819 70.9756C56.3162 70.9756 61.1305 76.0139 61.1305 82.9892C61.1305 89.9646 56.3162 94.9998 49.3819 94.9998C42.4475 94.9998 37.6362 89.9615 37.6362 82.9892C37.6362 76.0169 42.4475 70.9756 49.3819 70.9756ZM49.3819 93.0627C55.32 93.0627 59.0104 88.6691 59.0104 82.9801C59.0104 77.291 55.32 72.8974 49.3819 72.8974C43.4437 72.8974 39.7533 77.2879 39.7533 82.9801C39.7533 88.6722 43.4346 93.0627 49.3819 93.0627V93.0627Z" fill="black"/>
<path d="M65.2403 71.5596H67.974L81.8094 91.5782H81.8731V71.5596H83.9993V94.4105H81.2657L67.4303 74.398H67.3635V94.4105H65.2373L65.2403 71.5596Z" fill="black"/>
<path d="M95.0191 73.4967H87.2524V71.5596H104.906V73.4967H97.1361V94.4105H95.0099L95.0191 73.4967Z" fill="black"/>
<path d="M112.141 71.5596H114.322L123.886 94.4105H121.511L119.042 88.3426H107.005L104.435 94.4105H102.221L112.141 71.5596ZM113.134 73.8847L107.84 86.4116H118.27L113.134 73.8847Z" fill="black"/>
<path d="M109.124 21.4241C105.534 21.4211 101.998 22.3082 98.829 24.0072C95.6604 25.7061 92.9569 28.1644 90.9577 31.1646C93.3072 25.999 93.5791 20.1194 91.7165 14.7566C89.8539 9.39389 86.0013 4.96381 80.965 2.3938C75.9288 -0.176204 70.0995 -0.686883 64.6974 0.968674C59.2953 2.62423 54.7393 6.31767 51.9832 11.2758C49.227 16.2339 48.4844 22.0723 49.9108 27.5687C51.3372 33.0651 54.822 37.7934 59.6357 40.7637C64.4494 43.7341 70.2188 44.7162 75.736 43.5044C81.2533 42.2927 86.0906 38.981 89.2355 34.2627C87.922 37.1377 87.2432 40.2647 87.246 43.4288V69.4359H98.2778V62.5369C101.187 64.2041 104.438 65.1771 107.78 65.3809C111.122 65.5846 114.466 65.0137 117.555 63.7122C120.643 62.4106 123.392 60.4131 125.592 57.8737C127.792 55.3343 129.382 52.3207 130.241 49.0654C131.1 45.81 131.204 42.3997 130.546 39.0974C129.887 35.7951 128.484 32.6889 126.444 30.0183C124.404 27.3477 121.781 25.184 118.778 23.694C115.775 22.204 112.473 21.4274 109.124 21.4241V21.4241ZM71.0749 32.9123C68.9302 32.9135 66.8334 32.2749 65.0495 31.0774C63.2656 29.8799 61.8748 28.1771 61.053 26.1845C60.2312 24.1918 60.0152 21.9988 60.4324 19.8827C60.8497 17.7666 61.8813 15.8225 63.397 14.2961C64.9126 12.7698 66.8442 11.7299 68.9474 11.3078C71.0506 10.8858 73.231 11.1006 75.2128 11.925C77.1947 12.7495 78.889 14.1466 80.0815 15.9396C81.274 17.7327 81.9111 19.8412 81.9123 21.9985C81.9131 23.431 81.6334 24.8495 81.0892 26.1732C80.545 27.4968 79.747 28.6997 78.7406 29.7132C77.7343 30.7266 76.5393 31.5307 75.224 32.0796C73.9087 32.6285 72.4988 32.9115 71.0749 32.9123V32.9123ZM109.13 54.3364C106.985 54.3364 104.888 53.6965 103.104 52.4976C101.321 51.2987 99.9305 49.5947 99.1095 47.601C98.2886 45.6074 98.0738 43.4136 98.4923 41.2972C98.9108 39.1807 99.9438 37.2366 101.461 35.7107C102.978 34.1848 104.91 33.1457 107.014 32.7247C109.118 32.3037 111.299 32.5198 113.281 33.3456C115.263 34.1714 116.957 35.5698 118.149 37.3641C119.341 39.1583 119.977 41.2678 119.977 43.4257C119.977 44.859 119.696 46.2783 119.151 47.6025C118.605 48.9266 117.806 50.1297 116.798 51.1429C115.79 52.1561 114.594 52.9597 113.277 53.5076C111.96 54.0556 110.549 54.3372 109.124 54.3364H109.13Z" fill="#005BAA"/>
<path d="M109.125 21.4239C105.616 21.4223 102.159 22.2704 99.0459 23.8967C95.9324 25.523 93.254 27.8796 91.2373 30.7672C95.6013 28.6335 100.547 28.0204 105.295 29.0242C110.043 30.028 114.325 32.5918 117.466 36.312C120.607 40.0322 122.429 44.6975 122.645 49.5734C122.861 54.4494 121.459 59.2591 118.659 63.2455C123.128 61.0825 126.733 57.4557 128.884 52.9603C131.034 48.4648 131.601 43.3677 130.493 38.5052C129.384 33.6427 126.666 29.3036 122.783 26.1998C118.9 23.096 114.084 21.412 109.125 21.4239Z" fill="url(#paint0_linear_906_8)"/>
<path d="M71.075 1.60745e-05C66.2556 -0.00585426 61.5703 1.59629 57.753 4.55554C55.8102 9.02787 55.4012 14.0231 56.5902 18.7549C57.7793 23.4867 60.4989 27.6864 64.321 30.693C68.1431 33.6995 72.8506 35.3421 77.7025 35.3622C82.5544 35.3823 87.2752 33.7788 91.1218 30.8041C92.5758 27.4558 93.1777 23.7959 92.8733 20.155C92.5689 16.5141 91.3678 13.0067 89.3783 9.94973C87.3888 6.89273 84.6738 4.38233 81.4782 2.64522C78.2827 0.90812 74.7073 -0.000980772 71.075 1.60745e-05V1.60745e-05ZM71.075 32.9122C68.9304 32.9135 66.8335 32.2749 65.0496 31.0774C63.2658 29.8798 61.875 28.1771 61.0531 26.1845C60.2313 24.1918 60.0154 21.9988 60.4326 19.8827C60.8498 17.7666 61.8815 15.8224 63.3971 14.2961C64.9128 12.7698 66.8443 11.7299 68.9475 11.3078C71.0507 10.8858 73.2311 11.1006 75.2129 11.925C77.1948 12.7495 78.8891 14.1466 80.0816 15.9396C81.2741 17.7327 81.9112 19.8412 81.9124 21.9985C81.9132 23.4309 81.6336 24.8495 81.0894 26.1732C80.5452 27.4968 79.7471 28.6997 78.7407 29.7132C77.7344 30.7266 76.5395 31.5307 75.2242 32.0796C73.9089 32.6285 72.499 32.9114 71.075 32.9122V32.9122Z" fill="url(#paint1_linear_906_8)"/>
</g>
<defs>
<linearGradient id="paint0_linear_906_8" x1="100.028" y1="25.7839" x2="126.191" y2="49.4316" gradientUnits="userSpaceOnUse">
<stop offset="0.2" stop-color="#002F67"/>
<stop offset="1" stop-color="#005BAA"/>
</linearGradient>
<linearGradient id="paint1_linear_906_8" x1="65.1399" y1="11.1948" x2="91.3979" y2="29.2965" gradientUnits="userSpaceOnUse">
<stop stop-color="#005BAA"/>
<stop offset="1" stop-color="#002F67"/>
</linearGradient>
<clipPath id="clip0_906_8">
<rect width="131" height="95" fill="white"/>
</clipPath>
</defs>
</svg>
