<svg width="15" height="15" viewBox="0 0 15 15" fill="none" xmlns="http://www.w3.org/2000/svg">
<g clip-path="url(#clip0_903_8)">
<path d="M0.348465 15C0.264236 15 0.182297 14.9667 0.121529 14.9052C0.0414201 14.8242 0.0105211 14.7066 0.040619 14.5966L1.01577 11.0357C0.40866 9.93782 0.0885697 8.69591 0.0890274 7.43523C0.0907441 3.33538 3.42715 0 7.52664 0C9.51505 0.000801088 11.3834 0.775337 12.7877 2.18067C14.1918 3.58612 14.9647 5.45437 14.9641 7.44118C14.9623 11.5411 11.6259 14.8767 7.52664 14.8767C7.52664 14.8767 7.52355 14.8767 7.52344 14.8767C6.32605 14.8763 5.13895 14.5845 4.08198 14.0317L0.429374 14.9896C0.402595 14.9966 0.375358 15 0.348465 15V15Z" fill="#E5E5E5"/>
<path d="M0.348633 14.6809L1.35846 10.9933C0.735558 9.91404 0.407913 8.68975 0.408371 7.43548C0.409973 3.51166 3.60311 0.319336 7.52683 0.319336C9.43091 0.320137 11.2181 1.06125 12.5621 2.40639C13.906 3.75152 14.6459 5.53955 14.6452 7.44121C14.6435 11.3649 11.4499 14.5577 7.52683 14.5577C7.52661 14.5577 7.52695 14.5577 7.52683 14.5577H7.52375C6.33241 14.5572 5.16191 14.2584 4.12221 13.6914L0.348633 14.6809ZM4.29696 12.4031L4.51314 12.5312C5.42135 13.0702 6.46265 13.3553 7.52455 13.3558H7.52683C10.7877 13.3558 13.4418 10.7022 13.4432 7.44075C13.4438 5.86021 12.829 4.37397 11.7119 3.256C10.5948 2.13803 9.10944 1.52199 7.52901 1.52131C4.26549 1.52131 1.61149 4.17461 1.61023 7.43594C1.60977 8.55357 1.92243 9.6419 2.51477 10.5837L2.65554 10.8076L2.0577 12.9902L4.29696 12.4031Z" fill="white"/>
<path d="M0.59668 14.4329L1.5716 10.8727C0.9701 9.83086 0.6539 8.6488 0.654243 7.43813C0.655731 3.65014 3.73842 0.568359 7.52607 0.568359C9.36445 0.56916 11.0899 1.28465 12.3871 2.58321C13.6846 3.88177 14.3987 5.60788 14.398 7.44351C14.3964 11.2316 11.3136 14.3137 7.52641 14.3137C7.52607 14.3137 7.52653 14.3137 7.52641 14.3137H7.52332C6.37331 14.3133 5.24321 14.0247 4.23956 13.4776L0.59668 14.4329Z" fill="#64B161"/>
<path d="M0.348633 14.6809L1.35846 10.9933C0.735558 9.91404 0.407913 8.68975 0.408371 7.43548C0.409973 3.51166 3.60311 0.319336 7.52683 0.319336C9.43091 0.320137 11.2181 1.06125 12.5621 2.40639C13.906 3.75152 14.6459 5.53955 14.6452 7.44121C14.6435 11.3649 11.4499 14.5577 7.52683 14.5577C7.52661 14.5577 7.52695 14.5577 7.52683 14.5577H7.52375C6.33241 14.5572 5.16191 14.2584 4.12221 13.6914L0.348633 14.6809ZM4.29696 12.4031L4.51314 12.5312C5.42135 13.0702 6.46265 13.3553 7.52455 13.3558H7.52683C10.7877 13.3558 13.4418 10.7022 13.4432 7.44075C13.4438 5.86021 12.829 4.37397 11.7119 3.256C10.5948 2.13803 9.10944 1.52199 7.52901 1.52131C4.26549 1.52131 1.61149 4.17461 1.61023 7.43594C1.60977 8.55357 1.92243 9.6419 2.51477 10.5837L2.65554 10.8076L2.0577 12.9902L4.29696 12.4031Z" fill="white"/>
<path fill-rule="evenodd" clip-rule="evenodd" d="M5.74819 4.45995C5.61498 4.16377 5.47467 4.15782 5.34787 4.15267C5.24419 4.14821 5.12552 4.14844 5.00707 4.14844C4.88851 4.14844 4.69579 4.19307 4.53283 4.37103C4.36975 4.54898 3.91016 4.97928 3.91016 5.85442C3.91016 6.72967 4.54759 7.57528 4.63651 7.69407C4.72543 7.81274 5.86698 9.66601 7.6748 10.379C9.17729 10.9716 9.48296 10.8537 9.80911 10.824C10.1353 10.7944 10.8614 10.3937 11.0096 9.97843C11.1579 9.56312 11.1579 9.20721 11.1134 9.13271C11.0689 9.05867 10.9503 9.01415 10.7725 8.92523C10.5946 8.83631 9.72019 8.40589 9.55712 8.34661C9.39404 8.28722 9.27548 8.25769 9.15692 8.43576C9.03824 8.6136 8.69767 9.01415 8.59387 9.13271C8.49007 9.25161 8.38627 9.26649 8.20843 9.17746C8.03059 9.08831 7.4577 8.90062 6.77815 8.29465C6.24944 7.82327 5.89238 7.24099 5.78859 7.06292C5.6849 6.88508 5.78687 6.79719 5.86675 6.70003C6.0106 6.52505 6.25196 6.21045 6.31124 6.09188C6.37052 5.97309 6.34088 5.8693 6.29647 5.78026C6.25196 5.69134 5.90623 4.81174 5.74819 4.45995V4.45995Z" fill="white"/>
</g>
<defs>
<clipPath id="clip0_903_8">
<rect width="15" height="15" fill="white"/>
</clipPath>
</defs>
</svg>
