<svg width="90" height="65" viewBox="0 0 90 65" fill="none" xmlns="http://www.w3.org/2000/svg">
<g clip-path="url(#clip0_801:8)">
<path d="M8.0716 31.5664C12.8336 31.5664 16.1411 35.0136 16.1411 39.7842C16.1411 44.5547 12.8336 48.0019 8.0716 48.0019C3.30961 48.0019 0 44.5568 0 39.7842C0 35.0116 3.30752 31.5664 8.0716 31.5664ZM8.0716 46.6766C12.1491 46.6766 14.6866 43.6725 14.6866 39.7779C14.6866 35.8833 12.1491 32.8792 8.0716 32.8792C3.99406 32.8792 1.46073 35.8958 1.46073 39.7842C1.46073 43.6725 3.98989 46.6766 8.0716 46.6766Z" fill="black"/>
<path d="M18.5913 31.9639H23.0904C25.4714 31.9639 28.1174 32.5597 28.1174 36.0947C28.1174 37.6856 27.17 38.9671 25.3169 39.3433V39.3872C27.3682 39.5419 28.8018 41.0429 28.8018 43.2296C28.8018 46.8315 25.6926 47.605 23.5745 47.605H18.5913V31.9639ZM20.052 38.7246H23.0716C26.0932 38.7246 26.6671 37.0668 26.6671 36.0947C26.6671 33.908 25.1229 33.2892 23.2698 33.2892H20.0479L20.052 38.7246ZM20.052 46.2796H23.3909C26.8069 46.2796 27.3557 44.3794 27.3557 43.2756C27.3557 40.9551 25.4588 40.0499 23.5995 40.0499H20.052V46.2796Z" fill="black"/>
<path d="M31.3013 31.9639H35.4038C36.6392 31.9639 40.9609 31.9639 40.9609 36.0738C40.9609 39.0549 38.6884 39.8743 36.9689 40.0938L41.5118 47.605H39.857L35.4748 40.1816H32.762V47.605H31.3013V31.9639ZM32.762 38.8625H35.8483C38.9138 38.8625 39.5085 37.1609 39.5085 36.0801C39.5085 34.9993 38.9138 33.2955 35.8483 33.2955H32.7495L32.762 38.8625Z" fill="black"/>
<path d="M49.8382 31.9639H51.3344L57.9056 47.605H56.2738L54.5751 43.4512H46.3116L44.5462 47.605H43.0249L49.8382 31.9639ZM50.5226 33.5547L46.8833 42.1258H54.0472L50.5226 33.5547Z" fill="black"/>
<path d="M2.01798 48.9609H6.51704C8.72066 48.9609 11.5441 49.8222 11.5441 53.0918C11.5441 55.9202 9.29452 57.1787 6.84675 57.1787H3.47245V64.5958H2.01172L2.01798 48.9609ZM3.47871 55.8596H6.77997C8.43478 55.8596 10.0896 55.153 10.0896 53.098C10.0896 51.087 8.368 50.2926 6.69233 50.2926H3.47245L3.47871 55.8596Z" fill="black"/>
<path d="M14.2339 48.9609H18.3365C19.5697 48.9609 23.8935 48.9609 23.8935 53.0688C23.8935 56.0519 21.621 56.8693 19.9015 57.0909L24.4444 64.5958H22.7896L18.4074 57.1745H15.6946V64.5958H14.2339V48.9609ZM15.6946 55.8596H18.7809C21.8464 55.8596 22.4432 54.1579 22.4432 53.075C22.4432 51.9922 21.8422 50.2863 18.7809 50.2863H15.6904L15.6946 55.8596Z" fill="black"/>
<path d="M33.9264 48.5625C38.6905 48.5625 41.998 52.0097 41.998 56.7824C41.998 61.555 38.6905 65.0001 33.9264 65.0001C29.1624 65.0001 25.8569 61.5529 25.8569 56.7824C25.8569 52.0118 29.1624 48.5625 33.9264 48.5625ZM33.9264 63.6748C38.0061 63.6748 40.5415 60.6686 40.5415 56.7761C40.5415 52.8836 38.0061 49.8774 33.9264 49.8774C29.8468 49.8774 27.3114 52.8815 27.3114 56.7761C27.3114 60.6707 29.8406 63.6748 33.9264 63.6748V63.6748Z" fill="black"/>
<path d="M44.8214 48.9609H46.6995L56.2047 62.6579H56.2485V48.9609H57.7093V64.5958H55.8312L46.326 50.903H46.2801V64.5958H44.8193L44.8214 48.9609Z" fill="black"/>
<path d="M65.2802 50.2863H59.9443V48.9609H72.0726V50.2863H66.7347V64.5958H65.2739L65.2802 50.2863Z" fill="black"/>
<path d="M77.0434 48.9609H78.5417L85.1129 64.5958H83.481L81.7845 60.4441H73.5147L71.7493 64.5958H70.228L77.0434 48.9609ZM77.7258 50.5518L74.0885 59.1229H81.2545L77.7258 50.5518Z" fill="black"/>
<path d="M74.971 14.659C72.5042 14.6569 70.0748 15.2639 67.8979 16.4264C65.721 17.5888 63.8636 19.2708 62.4901 21.3236C64.1042 17.7892 64.2911 13.7663 63.0114 10.0971C61.7318 6.42781 59.0849 3.3967 55.6249 1.63828C52.1649 -0.120149 48.16 -0.469561 44.4487 0.663188C40.7373 1.79594 37.6072 4.32302 35.7137 7.71542C33.8202 11.1078 33.31 15.1025 34.2899 18.8632C35.2699 22.6239 37.6641 25.859 40.9712 27.8914C44.2783 29.9237 48.242 30.5957 52.0325 29.7666C55.8229 28.9375 59.1463 26.6716 61.3069 23.4433C60.4045 25.4104 59.9382 27.55 59.94 29.7148V47.5092H67.5192V42.7888C69.5179 43.9296 71.7514 44.5953 74.0475 44.7347C76.3437 44.8741 78.6411 44.4835 80.7627 43.5929C82.8844 42.7024 84.7735 41.3357 86.2846 39.5982C87.7958 37.8607 88.8885 35.7988 89.4785 33.5715C90.0686 31.3441 90.1402 29.0107 89.6879 26.7513C89.2356 24.4918 88.2715 22.3665 86.8698 20.5393C85.4682 18.712 83.6664 17.2316 81.6034 16.2121C79.5405 15.1926 77.2713 14.6613 74.971 14.659V14.659ZM48.8301 22.5193C47.3567 22.5202 45.9161 22.0833 44.6906 21.2639C43.465 20.4445 42.5095 19.2795 41.9449 17.9161C41.3803 16.5527 41.2319 15.0522 41.5185 13.6044C41.8052 12.1565 42.514 10.8263 43.5552 9.78198C44.5965 8.73767 45.9235 8.02613 47.3685 7.73736C48.8134 7.44858 50.3114 7.59553 51.673 8.15963C53.0346 8.72373 54.1986 9.67964 55.0179 10.9065C55.8371 12.1333 56.2749 13.576 56.2757 15.052C56.2762 16.0321 56.0841 17.0027 55.7102 17.9084C55.3363 18.814 54.7881 19.6371 54.0967 20.3305C53.4053 21.0239 52.5843 21.5741 51.6807 21.9496C50.7771 22.3252 49.8084 22.5188 48.8301 22.5193V22.5193ZM74.9752 37.1779C73.5013 37.1779 72.0606 36.7401 70.8352 35.9198C69.6097 35.0995 68.6546 33.9336 68.0906 32.5695C67.5266 31.2055 67.379 29.7045 67.6665 28.2564C67.9541 26.8083 68.6638 25.4781 69.7059 24.4341C70.7481 23.39 72.0759 22.679 73.5214 22.391C74.9669 22.103 76.4652 22.2508 77.8269 22.8158C79.1885 23.3808 80.3523 24.3377 81.1711 25.5653C81.99 26.793 82.427 28.2363 82.427 29.7127C82.427 30.6934 82.2341 31.6645 81.8594 32.5705C81.4846 33.4765 80.9354 34.2996 80.2429 34.9929C79.5505 35.6862 78.7286 36.236 77.824 36.6109C76.9194 36.9858 75.9499 37.1785 74.971 37.1779H74.9752Z" fill="#005BAA"/>
<path d="M74.9711 14.6582C72.5608 14.6571 70.1858 15.2375 68.0468 16.3502C65.9078 17.4629 64.0677 19.0753 62.6821 21.051C65.6803 19.5912 69.0779 19.1716 72.3402 19.8585C75.6024 20.5453 78.544 22.2995 80.7019 24.8449C82.8598 27.3902 84.1115 30.5823 84.2598 33.9185C84.4082 37.2546 83.4448 40.5455 81.5214 43.273C84.5917 41.7931 87.0687 39.3116 88.546 36.2358C90.0233 33.1599 90.4131 29.6724 89.6515 26.3454C88.8899 23.0185 87.0221 20.0496 84.3546 17.926C81.6871 15.8023 78.3783 14.6501 74.9711 14.6582Z" fill="url(#paint0_linear_801:8)"/>
<path d="M48.8304 1.09984e-05C45.5194 -0.00400555 42.3005 1.0922 39.6779 3.11695C38.3432 6.17696 38.0622 9.59475 38.8791 12.8323C39.696 16.0699 41.5644 18.9433 44.1903 21.0004C46.8161 23.0575 50.0503 24.1814 53.3837 24.1952C56.7171 24.2089 59.9604 23.1118 62.6031 21.0765C63.602 18.7855 64.0155 16.2814 63.8064 13.7902C63.5972 11.2991 62.772 8.89934 61.4052 6.80771C60.0384 4.71608 58.1731 2.99844 55.9777 1.80989C53.7823 0.621345 51.3259 -0.000671054 48.8304 1.09984e-05V1.09984e-05ZM48.8304 22.5189C47.357 22.5197 45.9164 22.0828 44.6909 21.2635C43.4653 20.4441 42.5098 19.2791 41.9452 17.9157C41.3806 16.5523 41.2322 15.0518 41.5189 13.6039C41.8055 12.1561 42.5143 10.8259 43.5555 9.78157C44.5968 8.73725 45.9238 8.02571 47.3688 7.73694C48.8137 7.44816 50.3117 7.59511 51.6733 8.15921C53.0349 8.72331 54.1989 9.67922 55.0182 10.9061C55.8374 12.1329 56.2752 13.5756 56.276 15.0516C56.2766 16.0317 56.0844 17.0023 55.7105 17.908C55.3366 18.8136 54.7884 19.6367 54.097 20.3301C53.4056 21.0235 52.5846 21.5737 51.681 21.9492C50.7774 22.3248 49.8087 22.5184 48.8304 22.5189V22.5189Z" fill="url(#paint1_linear_801:8)"/>
</g>
<defs>
<linearGradient id="paint0_linear_801:8" x1="68.7212" y1="17.6414" x2="86.6296" y2="33.8945" gradientUnits="userSpaceOnUse">
<stop offset="0.2" stop-color="#002F67"/>
<stop offset="1" stop-color="#005BAA"/>
</linearGradient>
<linearGradient id="paint1_linear_801:8" x1="44.7529" y1="7.65961" x2="62.745" y2="20.1139" gradientUnits="userSpaceOnUse">
<stop stop-color="#005BAA"/>
<stop offset="1" stop-color="#002F67"/>
</linearGradient>
<clipPath id="clip0_801:8">
<rect width="90" height="65" fill="white"/>
</clipPath>
</defs>
</svg>
