<svg width="120" height="87" viewBox="0 0 120 87" fill="none" xmlns="http://www.w3.org/2000/svg">
<g clip-path="url(#clip0_801:8)">
<path d="M10.7621 42.251C17.1115 42.251 21.5215 46.865 21.5215 53.2501C21.5215 59.6353 17.1115 64.2493 10.7621 64.2493C4.41281 64.2493 0 59.6381 0 53.2501C0 46.8622 4.41003 42.251 10.7621 42.251ZM10.7621 62.4753C16.1988 62.4753 19.5822 58.4545 19.5822 53.2417C19.5822 48.029 16.1988 44.0082 10.7621 44.0082C5.32542 44.0082 1.94765 48.0458 1.94765 53.2501C1.94765 58.4545 5.31985 62.4753 10.7621 62.4753Z" fill="black"/>
<path d="M24.7881 42.7822H30.7868C33.9615 42.7822 37.4895 43.5797 37.4895 48.3112C37.4895 50.4405 36.2263 52.1557 33.7556 52.6594V52.7181C36.4907 52.9252 38.4021 54.9342 38.4021 57.861C38.4021 62.682 34.2564 63.7173 31.4323 63.7173H24.7881V42.7822ZM26.7357 51.8312H30.7618C34.7906 51.8312 35.5558 49.6123 35.5558 48.3112C35.5558 45.3844 33.4968 44.5562 31.0261 44.5562H26.7302L26.7357 51.8312ZM26.7357 61.9433H31.1875C35.7422 61.9433 36.474 59.3999 36.474 57.9225C36.474 54.8167 33.9448 53.6051 31.4657 53.6051H26.7357V61.9433Z" fill="black"/>
<path d="M41.7354 42.7822H47.2055C48.8526 42.7822 54.6149 42.7822 54.6149 48.2832C54.6149 52.2732 51.5849 53.3701 49.2922 53.6639L55.3494 63.7173H53.143L47.3001 53.7814H43.683V63.7173H41.7354V42.7822ZM43.683 52.0158H47.7981C51.8854 52.0158 52.6783 49.7382 52.6783 48.2916C52.6783 46.845 51.8854 44.5646 47.7981 44.5646H43.6663L43.683 52.0158Z" fill="black"/>
<path d="M66.4511 42.7822H68.446L77.2076 63.7173H75.0319L72.767 58.1576H61.7489L59.395 63.7173H57.3667L66.4511 42.7822ZM67.3637 44.9115L62.5113 56.3836H72.0631L67.3637 44.9115Z" fill="black"/>
<path d="M2.69048 65.5332H8.68922C11.6274 65.5332 15.3919 66.686 15.3919 71.0622C15.3919 74.8479 12.3925 76.5324 9.12884 76.5324H4.62977V86.4599H2.68213L2.69048 65.5332ZM4.63812 74.7668H9.0398C11.2462 74.7668 13.4526 73.821 13.4526 71.0706C13.4526 68.3788 11.1572 67.3156 8.92294 67.3156H4.62977L4.63812 74.7668Z" fill="black"/>
<path d="M18.9785 65.5332H24.4486C26.093 65.5332 31.858 65.5332 31.858 71.0314C31.858 75.0242 28.828 76.1183 26.5354 76.4148L32.5926 86.4599H30.3862L24.5432 76.5268H20.9262V86.4599H18.9785V65.5332ZM20.9262 74.7668H25.0413C29.1285 74.7668 29.9243 72.4892 29.9243 71.0398C29.9243 69.5904 29.123 67.3072 25.0413 67.3072H20.9206L20.9262 74.7668Z" fill="black"/>
<path d="M45.2354 65C51.5875 65 55.9976 69.614 55.9976 76.002C55.9976 82.3899 51.5875 87.0011 45.2354 87.0011C38.8833 87.0011 34.4761 82.3871 34.4761 76.002C34.4761 69.6168 38.8833 65 45.2354 65ZM45.2354 85.2272C50.6749 85.2272 54.0555 81.2036 54.0555 75.9936C54.0555 70.7836 50.6749 66.76 45.2354 66.76C39.7959 66.76 36.4154 70.7808 36.4154 75.9936C36.4154 81.2064 39.7876 85.2272 45.2354 85.2272V85.2272Z" fill="black"/>
<path d="M59.7621 65.5332H62.2662L74.9398 83.8661H74.9982V65.5332H76.9459V86.4599H74.4417L61.7681 68.1326H61.7069V86.4599H59.7593L59.7621 65.5332Z" fill="black"/>
<path d="M87.0402 67.3072H79.9258V65.5332H96.0968V67.3072H88.9795V86.4599H87.0319L87.0402 67.3072Z" fill="black"/>
<path d="M102.724 65.5332H104.722L113.484 86.4599H111.308L109.046 80.9029H98.0194L95.6655 86.4599H93.6372L102.724 65.5332ZM103.634 67.6625L98.7846 79.1346H108.339L103.634 67.6625Z" fill="black"/>
<path d="M99.9613 19.6202C96.6722 19.6174 93.4331 20.4298 90.5305 21.9857C87.628 23.5415 85.1515 25.7928 83.3201 28.5404C85.4723 23.8098 85.7214 18.4253 84.0152 13.5141C82.309 8.603 78.7799 4.54598 74.1665 2.19239C69.5532 -0.161191 64.2134 -0.628865 59.2649 0.887276C54.3164 2.40342 50.143 5.78583 47.6183 10.3264C45.0935 14.867 44.4133 20.2137 45.7199 25.2473C47.0265 30.2808 50.2187 34.611 54.6282 37.3312C59.0377 40.0514 64.3226 40.9508 69.3766 39.8411C74.4306 38.7313 78.8618 35.6986 81.7425 31.3776C80.5393 34.0105 79.9175 36.8742 79.9201 39.7718V63.5888H90.0256V57.2708C92.6906 58.7976 95.6686 59.6887 98.7301 59.8753C101.792 60.0619 104.855 59.5391 107.684 58.3471C110.512 57.1551 113.031 55.3259 115.046 53.0003C117.061 50.6747 118.518 47.915 119.305 44.9337C120.091 41.9525 120.187 38.8294 119.584 35.8052C118.981 32.7809 117.695 29.9363 115.826 27.4906C113.958 25.0449 111.555 23.0634 108.805 21.6989C106.054 20.3343 103.028 19.6232 99.9613 19.6202V19.6202ZM65.1068 30.1409C63.1423 30.142 61.2215 29.5572 59.5874 28.4605C57.9533 27.3638 56.6793 25.8045 55.9265 23.9796C55.1737 22.1548 54.9759 20.1464 55.3581 18.2085C55.7402 16.2706 56.6853 14.4902 58.0737 13.0924C59.462 11.6947 61.2314 10.7423 63.158 10.3558C65.0846 9.96926 67.0819 10.166 68.8973 10.921C70.7128 11.676 72.2648 12.9555 73.3572 14.5975C74.4495 16.2396 75.0332 18.1706 75.0343 20.1462C75.035 21.458 74.7788 22.7571 74.2803 23.9693C73.7818 25.1815 73.0507 26.2831 72.1289 27.2112C71.207 28.1393 70.1124 28.8757 68.9076 29.3784C67.7028 29.881 66.4113 30.1401 65.1068 30.1409V30.1409ZM99.9669 49.7608C98.0018 49.7608 96.0808 49.1748 94.4469 48.0769C92.813 46.979 91.5395 45.4185 90.7874 43.5927C90.0354 41.7669 89.8387 39.7579 90.222 37.8197C90.6054 35.8814 91.5517 34.1011 92.9413 32.7037C94.3308 31.3063 96.1012 30.3547 98.0285 29.9691C99.9559 29.5836 101.954 29.7814 103.769 30.5377C105.585 31.294 107.136 32.5747 108.228 34.2178C109.32 35.861 109.903 37.7928 109.903 39.769C109.903 41.0816 109.645 42.3814 109.146 43.594C108.646 44.8066 107.914 45.9084 106.991 46.8363C106.067 47.7642 104.971 48.5001 103.765 49.0019C102.559 49.5037 101.267 49.7616 99.9613 49.7608H99.9669Z" fill="#005BAA"/>
<path d="M99.9614 19.6202C96.7478 19.6187 93.5811 20.3954 90.729 21.8848C87.877 23.3741 85.4236 25.5322 83.5762 28.1766C87.5737 26.2227 92.1039 25.6612 96.4535 26.5805C100.803 27.4998 104.725 29.8477 107.603 33.2546C110.48 36.6615 112.149 40.9339 112.346 45.3992C112.544 49.8646 111.26 54.2693 108.695 57.92C112.789 55.9391 116.092 52.6177 118.061 48.5009C120.031 44.384 120.551 39.7161 119.535 35.263C118.52 30.81 116.03 26.8363 112.473 23.9939C108.916 21.1515 104.504 19.6093 99.9614 19.6202Z" fill="url(#paint0_linear_801:8)"/>
<path d="M65.1069 1.47209e-05C60.6922 -0.00536127 56.4003 1.46187 52.9035 4.17192C51.1239 8.26762 50.7492 12.8422 51.8384 17.1755C52.9276 21.5089 55.4189 25.3549 58.92 28.1083C62.4212 30.8616 66.7334 32.3659 71.1779 32.3843C75.6224 32.4027 79.9468 30.9343 83.4704 28.21C84.8023 25.1437 85.3537 21.792 85.0748 18.4577C84.796 15.1234 83.6957 11.9114 81.8733 9.11186C80.0509 6.31229 77.5638 4.01329 74.6366 2.42247C71.7094 0.831647 68.4342 -0.00089818 65.1069 1.47209e-05V1.47209e-05ZM65.1069 30.1407C63.1424 30.1418 61.2216 29.557 59.5875 28.4603C57.9534 27.3636 56.6794 25.8043 55.9266 23.9794C55.1738 22.1546 54.976 20.1462 55.3581 18.2083C55.7403 16.2704 56.6854 14.49 58.0737 13.0922C59.4621 11.6945 61.2315 10.7421 63.1581 10.3556C65.0847 9.96908 67.082 10.1658 68.8974 10.9208C70.7128 11.6758 72.2649 12.9553 73.3572 14.5973C74.4496 16.2394 75.0332 18.1704 75.0343 20.146C75.0351 21.4578 74.7789 22.7569 74.2804 23.9691C73.7819 25.1813 73.0508 26.2829 72.129 27.211C71.2071 28.1391 70.1125 28.8755 68.9077 29.3782C67.7028 29.8809 66.4113 30.14 65.1069 30.1407V30.1407Z" fill="url(#paint1_linear_801:8)"/>
</g>
<defs>
<linearGradient id="paint0_linear_801:8" x1="91.6283" y1="23.613" x2="115.589" y2="45.2756" gradientUnits="userSpaceOnUse">
<stop offset="0.2" stop-color="#002F67"/>
<stop offset="1" stop-color="#005BAA"/>
</linearGradient>
<linearGradient id="paint1_linear_801:8" x1="59.6702" y1="10.2521" x2="83.7192" y2="26.8353" gradientUnits="userSpaceOnUse">
<stop stop-color="#005BAA"/>
<stop offset="1" stop-color="#002F67"/>
</linearGradient>
<clipPath id="clip0_801:8">
<rect width="120" height="87" fill="white"/>
</clipPath>
</defs>
</svg>
