<svg width="48" height="16" viewBox="0 0 48 16" fill="none" xmlns="http://www.w3.org/2000/svg">
<rect x="23" y="1" width="25" height="15" fill="#A8A8A8"/>
<path d="M35.5 3.5L44.25 8.5L35.5 13.5L26.75 8.5L35.5 3.5Z" fill="#D0D0D0"/>
<circle cx="35.5" cy="8.5" r="2.5" fill="#848484"/>
<path d="M4.49707 10.2427H2.31445V8.46289H4.49707C4.7998 8.46289 5.04639 8.39453 5.23682 8.25781C5.43213 8.12109 5.57373 7.93311 5.66162 7.69385C5.74951 7.44971 5.79346 7.17627 5.79346 6.87354C5.79346 6.56592 5.74707 6.28027 5.6543 6.0166C5.56641 5.74805 5.42725 5.53076 5.23682 5.36475C5.05127 5.19873 4.80469 5.11572 4.49707 5.11572H3.00293V14H0.864258V3.33594H4.49707C5.21484 3.33594 5.83252 3.4873 6.3501 3.79004C6.86768 4.09277 7.26318 4.51025 7.53662 5.04248C7.81494 5.56982 7.9541 6.17529 7.9541 6.85889C7.9541 7.54736 7.81494 8.14551 7.53662 8.65332C7.26318 9.15625 6.86768 9.54688 6.3501 9.8252C5.83252 10.1035 5.21484 10.2427 4.49707 10.2427ZM13.6377 3.33594V14H11.5063V3.33594H13.6377ZM16.2891 3.33594V5.11572H8.90625V3.33594H16.2891Z" fill="white"/>
</svg>
