<svg width="150" height="127" viewBox="0 0 150 127" fill="none" xmlns="http://www.w3.org/2000/svg">
<path d="M109.823 39.0339C103.243 39.0283 96.7618 40.6447 90.9546 43.7401C85.1473 46.8355 80.1924 51.3145 76.5283 56.7808C80.8343 47.3691 81.3327 36.6566 77.9191 26.8858C74.5054 17.115 67.4445 9.04347 58.2143 4.36097C48.9842 -0.321536 38.3005 -1.25198 28.3998 1.76441C18.4991 4.7808 10.1491 11.5102 5.09781 20.5438C0.046488 29.5773 -1.31452 40.2148 1.2997 50.2291C3.91393 60.2435 10.3007 68.8584 19.123 74.2703C27.9453 79.6822 38.5191 81.4715 48.6308 79.2637C58.7426 77.0559 67.6083 71.0222 73.3719 62.4255C70.9646 67.6636 69.7206 73.3611 69.7257 79.1259V126.51H89.9443V113.941C95.2762 116.978 101.235 118.751 107.36 119.122C113.485 119.493 119.614 118.453 125.274 116.082C130.933 113.71 135.973 110.071 140.004 105.444C144.035 100.818 146.95 95.3269 148.524 89.3957C150.099 83.4645 150.29 77.251 149.083 71.2342C147.877 65.2175 145.305 59.5581 141.565 54.6923C137.826 49.8266 133.02 45.8843 127.516 43.1695C122.013 40.4547 115.96 39.0398 109.823 39.0339V39.0339ZM40.0881 59.965C36.1575 59.9672 32.3145 58.8038 29.0451 56.6219C25.7757 54.44 23.2268 51.3377 21.7205 47.7071C20.2143 44.0765 19.8186 40.0809 20.5832 36.2254C21.3479 32.3699 23.2386 28.8277 26.0164 26.0468C28.7942 23.2659 32.3343 21.3712 36.1889 20.6022C40.0436 19.8332 44.0397 20.2245 47.6719 21.7267C51.3041 23.2288 54.4094 25.7743 56.5949 29.0412C58.7805 32.3082 59.9482 36.1498 59.9504 40.0804C59.9519 42.6903 59.4393 45.2748 58.4419 47.6865C57.4445 50.0982 55.9819 52.2899 54.1375 54.1364C52.2931 55.9828 50.1031 57.4479 47.6925 58.448C45.2819 59.4481 42.6979 59.9636 40.0881 59.965V59.965ZM109.834 98.9994C105.903 98.9994 102.059 97.8335 98.7902 95.6491C95.5211 93.4648 92.9732 90.3601 91.4686 86.7277C89.964 83.0953 89.5703 79.0983 90.3374 75.2421C91.1044 71.386 92.9977 67.8439 95.7778 65.0638C98.558 62.2836 102.1 60.3903 105.956 59.6233C109.812 58.8563 113.809 59.2499 117.442 60.7545C121.074 62.2591 124.179 64.8071 126.363 68.0762C128.548 71.3452 129.713 75.1887 129.713 79.1204C129.713 81.7318 129.199 84.3177 128.199 86.7303C127.199 89.1428 125.734 91.3348 123.887 93.1809C122.04 95.027 119.847 96.491 117.434 97.4894C115.021 98.4877 112.435 99.0008 109.823 98.9994H109.834Z" fill="#005BAA"/>
<path d="M109.824 39.0343C103.394 39.0313 97.0583 40.5767 91.3521 43.5398C85.6459 46.5029 80.7372 50.7965 77.041 56.0575C85.0391 52.1701 94.1028 51.053 102.805 52.882C111.508 54.7109 119.355 59.3821 125.112 66.1602C130.868 72.9383 134.207 81.4383 134.603 90.3222C134.999 99.2061 132.429 107.969 127.298 115.233C135.489 111.292 142.096 104.684 146.037 96.493C149.978 88.3024 151.018 79.0155 148.986 70.1561C146.955 61.2967 141.972 53.3909 134.856 47.7359C127.74 42.0809 118.913 39.0126 109.824 39.0343Z" fill="url(#paint0_linear)"/>
<path d="M40.0885 2.92875e-05C31.2557 -0.0106664 22.6688 2.90841 15.6726 8.30011C12.112 16.4486 11.3623 25.5498 13.5416 34.1711C15.7208 42.7924 20.7052 50.4442 27.7101 55.922C34.715 61.3998 43.3427 64.3926 52.2351 64.4292C61.1274 64.4659 69.7795 61.5443 76.8293 56.1244C79.494 50.0239 80.5972 43.3557 80.0394 36.722C79.4815 30.0883 77.28 23.698 73.6339 18.1282C69.9877 12.5584 65.0116 7.98452 59.155 4.81955C53.2984 1.65458 46.7456 -0.00178695 40.0885 2.92875e-05V2.92875e-05ZM40.0885 59.9655C36.1579 59.9677 32.315 58.8043 29.0456 56.6224C25.7762 54.4405 23.2272 51.3381 21.721 47.7076C20.2148 44.077 19.819 40.0814 20.5837 36.2259C21.3483 32.3704 23.2391 28.8282 26.0169 26.0473C28.7947 23.2664 32.3347 21.3716 36.1894 20.6027C40.044 19.8337 44.0401 20.225 47.6723 21.7271C51.3046 23.2293 54.4098 25.7748 56.5954 29.0417C58.7809 32.3087 59.9486 36.1503 59.9508 40.0809C59.9523 42.6907 59.4397 45.2753 58.4423 47.687C57.4449 50.0987 55.9823 52.2904 54.1379 54.1368C52.2935 55.9833 50.1035 57.4484 47.6929 58.4485C45.2823 59.4485 42.6983 59.964 40.0885 59.9655V59.9655Z" fill="url(#paint1_linear)"/>
<defs>
<linearGradient id="paint0_linear" x1="93.1513" y1="46.9781" x2="140.848" y2="90.3434" gradientUnits="userSpaceOnUse">
<stop offset="0.2" stop-color="#002F67"/>
<stop offset="1" stop-color="#005BAA"/>
</linearGradient>
<linearGradient id="paint1_linear" x1="29.211" y1="20.3967" x2="77.1522" y2="53.6416" gradientUnits="userSpaceOnUse">
<stop stop-color="#005BAA"/>
<stop offset="1" stop-color="#002F67"/>
</linearGradient>
</defs>
</svg>
