<svg width="150" height="109" viewBox="0 0 150 109" fill="none" xmlns="http://www.w3.org/2000/svg">
<g clip-path="url(#clip0)">
<path d="M13.4527 52.5166C21.3893 52.5166 26.9019 58.2517 26.9019 66.1884C26.9019 74.125 21.3893 79.8602 13.4527 79.8602C5.51601 79.8602 0 74.1285 0 66.1884C0 58.2482 5.51253 52.5166 13.4527 52.5166ZM13.4527 77.6551C20.2486 77.6551 24.4777 72.6573 24.4777 66.1779C24.4777 59.6985 20.2486 54.7007 13.4527 54.7007C6.65677 54.7007 2.43456 59.7194 2.43456 66.1884C2.43456 72.6573 6.64982 77.6551 13.4527 77.6551Z" fill="black"/>
<path d="M30.9854 53.1768H38.4838C42.4521 53.1768 46.8621 54.168 46.8621 60.0492C46.8621 62.6959 45.2832 64.8279 42.1947 65.4539V65.5269C45.6136 65.7843 48.0029 68.2814 48.0029 71.9194C48.0029 77.9119 42.8208 79.1987 39.2907 79.1987H30.9854V53.1768ZM33.4199 64.4244H38.4525C43.4885 64.4244 44.445 61.6664 44.445 60.0492C44.445 56.4112 41.8713 55.3818 38.7829 55.3818H33.413L33.4199 64.4244ZM33.4199 76.9937H38.9846C44.678 76.9937 45.5927 73.8322 45.5927 71.9959C45.5927 68.1354 42.4312 66.6294 39.3324 66.6294H33.4199V76.9937Z" fill="black"/>
<path d="M52.1689 53.1768H59.0066C61.0655 53.1768 68.2683 53.1768 68.2683 60.0144C68.2683 64.9739 64.4808 66.3373 61.615 66.7025L69.1865 79.1987H66.4285L59.1248 66.8485H54.6035V79.1987H52.1689V53.1768ZM54.6035 64.654H59.7474C64.8565 64.654 65.8477 61.8229 65.8477 60.0248C65.8477 58.2267 64.8565 55.3922 59.7474 55.3922H54.5826L54.6035 64.654Z" fill="black"/>
<path d="M83.0635 53.1768H85.5572L96.5092 79.1987H93.7894L90.9584 72.288H77.1858L74.2434 79.1987H71.708L83.0635 53.1768ZM84.2042 55.8235L78.1387 70.083H90.0785L84.2042 55.8235Z" fill="black"/>
<path d="M3.36297 81.457H10.8614C14.5341 81.457 19.2398 82.8899 19.2398 88.3294C19.2398 93.0351 15.4905 95.1288 11.4109 95.1288H5.7871V107.469H3.35254L3.36297 81.457ZM5.79753 92.9342H11.2996C14.0576 92.9342 16.8156 91.7587 16.8156 88.3399C16.8156 84.9941 13.9463 83.6725 11.1536 83.6725H5.7871L5.79753 92.9342Z" fill="black"/>
<path d="M23.7227 81.457H30.5603C32.6157 81.457 39.822 81.457 39.822 88.2912C39.822 93.2542 36.0346 94.6141 33.1687 94.9827L40.7402 107.469H37.9822L30.6785 95.1218H26.1572V107.469H23.7227V81.457ZM26.1572 92.9342H31.3011C36.4102 92.9342 37.4049 90.1032 37.4049 88.3016C37.4049 86.5 36.4032 83.662 31.3011 83.662H26.1503L26.1572 92.9342Z" fill="black"/>
<path d="M56.5439 80.792C64.484 80.792 69.9966 86.5271 69.9966 94.4673C69.9966 102.407 64.484 108.139 56.5439 108.139C48.6038 108.139 43.0947 102.404 43.0947 94.4673C43.0947 86.5306 48.6038 80.792 56.5439 80.792ZM56.5439 105.934C63.3433 105.934 67.569 100.933 67.569 94.4568C67.569 87.9809 63.3433 82.9796 56.5439 82.9796C49.7445 82.9796 45.5189 87.9774 45.5189 94.4568C45.5189 100.936 49.7341 105.934 56.5439 105.934V105.934Z" fill="black"/>
<path d="M74.7027 81.457H77.8328L93.6749 104.244H93.7479V81.457H96.1824V107.469H93.0523L77.2103 84.688H77.1338V107.469H74.6992L74.7027 81.457Z" fill="black"/>
<path d="M108.8 83.662H99.9072V81.457H120.121V83.662H111.224V107.469H108.79L108.8 83.662Z" fill="black"/>
<path d="M128.406 81.457H130.903L141.855 107.469H139.135L136.308 100.561H122.525L119.582 107.469H117.047L128.406 81.457ZM129.543 84.1037L123.481 98.3633H135.424L129.543 84.1037Z" fill="black"/>
<path d="M124.952 24.3874C120.84 24.3839 116.791 25.3938 113.163 27.3277C109.535 29.2616 106.439 32.0599 104.15 35.4751C106.84 29.595 107.152 22.9022 105.019 16.7977C102.886 10.6932 98.4749 5.65042 92.7082 2.72495C86.9415 -0.200513 80.2667 -0.781824 74.0811 1.10271C67.8955 2.98725 62.6787 7.19153 59.5228 12.8354C56.3669 18.4793 55.5166 25.1252 57.1499 31.3818C58.7832 37.6384 62.7734 43.0207 68.2853 46.4019C73.7971 49.783 80.4033 50.901 86.7208 49.5216C93.0382 48.1423 98.5772 44.3726 102.178 39.0017C100.674 42.2743 99.8969 45.8339 99.9001 49.4355V79.0397H112.532V71.1865C115.863 73.0843 119.586 74.1919 123.413 74.4238C127.239 74.6558 131.068 74.0059 134.605 72.5243C138.141 71.0427 141.289 68.769 143.808 65.8783C146.326 62.9877 148.147 59.5573 149.131 55.8517C150.114 52.1461 150.234 48.2641 149.48 44.5051C148.726 40.746 147.119 37.2102 144.783 34.1703C142.447 31.1303 139.444 28.6673 136.006 26.9712C132.567 25.2751 128.786 24.3911 124.952 24.3874V24.3874ZM81.3835 37.4644C78.9278 37.4658 76.5269 36.739 74.4843 35.3758C72.4417 34.0126 70.8492 32.0744 69.9081 29.8061C68.9671 27.5379 68.7198 25.0415 69.1976 22.6327C69.6753 20.224 70.8566 18.0109 72.5921 16.2735C74.3275 14.5361 76.5392 13.3523 78.9475 12.8719C81.3557 12.3915 83.8524 12.636 86.1216 13.5744C88.3909 14.5129 90.331 16.1033 91.6964 18.1443C93.0619 20.1854 93.7914 22.5855 93.7928 25.0412C93.7937 26.6718 93.4735 28.2865 92.8504 29.7933C92.2272 31.3 91.3134 32.6693 90.1611 33.8229C89.0088 34.9765 87.6406 35.8918 86.1345 36.5167C84.6284 37.1415 83.0141 37.4635 81.3835 37.4644V37.4644ZM124.959 61.8517C122.502 61.8517 120.101 61.1233 118.059 59.7586C116.016 58.394 114.424 56.4543 113.484 54.1849C112.544 51.9154 112.298 49.4183 112.778 47.0091C113.257 44.5999 114.44 42.3869 116.177 40.65C117.913 38.913 120.126 37.7302 122.536 37.251C124.945 36.7717 127.442 37.0177 129.711 37.9577C131.981 38.8977 133.921 40.4896 135.285 42.532C136.65 44.5744 137.378 46.9756 137.378 49.432C137.378 51.0636 137.057 52.6792 136.432 54.1865C135.808 55.6937 134.892 57.0632 133.738 58.2166C132.584 59.3699 131.214 60.2846 129.707 60.9084C128.199 61.5321 126.583 61.8527 124.952 61.8517H124.959Z" fill="#005BAA"/>
<path d="M124.952 24.3868C120.935 24.3849 116.977 25.3504 113.412 27.2017C109.847 29.0529 106.78 31.7354 104.471 35.0223C109.468 32.5936 115.13 31.8957 120.567 33.0383C126.005 34.181 130.907 37.0994 134.504 41.3341C138.1 45.5688 140.186 50.8793 140.434 56.4297C140.681 61.9801 139.075 67.4551 135.87 71.9928C140.987 69.5306 145.115 65.4022 147.577 60.285C150.039 55.1678 150.689 49.3657 149.42 43.8306C148.15 38.2955 145.037 33.3563 140.592 29.8233C136.146 26.2902 130.631 24.3732 124.952 24.3868Z" fill="url(#paint0_linear)"/>
<path d="M81.3834 1.82978e-05C75.865 -0.00666397 70.5002 1.81708 66.1292 5.18562C63.9046 10.2765 63.4363 15.9626 64.7978 21.3489C66.1593 26.7352 69.2733 31.5158 73.6498 34.9381C78.0262 38.3605 83.4165 40.2303 88.9721 40.2532C94.5278 40.2761 99.9333 38.4508 104.338 35.0646C106.003 31.2532 106.692 27.0871 106.343 22.9426C105.995 18.7981 104.619 14.8057 102.341 11.3259C100.063 7.84607 96.9545 4.98845 93.2955 3.01109C89.6365 1.03372 85.5425 -0.00111642 81.3834 1.82978e-05V1.82978e-05ZM81.3834 37.4644C78.9277 37.4657 76.5267 36.7389 74.4841 35.3757C72.4415 34.0126 70.849 32.0743 69.908 29.806C68.967 27.5378 68.7197 25.0415 69.1974 22.6327C69.6752 20.2239 70.8565 18.0109 72.5919 16.2734C74.3274 14.536 76.5391 13.3523 78.9473 12.8718C81.3556 12.3914 83.8522 12.6359 86.1215 13.5744C88.3908 14.5128 90.3309 16.1032 91.6963 18.1443C93.0618 20.1853 93.7913 22.5855 93.7927 25.0412C93.7936 26.6717 93.4734 28.2864 92.8502 29.7932C92.2271 31.3 91.3133 32.6692 90.161 33.8228C89.0087 34.9764 87.6404 35.8918 86.1344 36.5166C84.6283 37.1414 83.0139 37.4635 81.3834 37.4644V37.4644Z" fill="url(#paint1_linear)"/>
</g>
<defs>
<linearGradient id="paint0_linear" x1="114.536" y1="29.3498" x2="144.335" y2="56.4429" gradientUnits="userSpaceOnUse">
<stop offset="0.2" stop-color="#002F67"/>
<stop offset="1" stop-color="#005BAA"/>
</linearGradient>
<linearGradient id="paint1_linear" x1="74.5875" y1="12.7432" x2="104.54" y2="33.5134" gradientUnits="userSpaceOnUse">
<stop stop-color="#005BAA"/>
<stop offset="1" stop-color="#002F67"/>
</linearGradient>
<clipPath id="clip0">
<rect width="150" height="108.14" fill="white"/>
</clipPath>
</defs>
</svg>
