<svg width="75" height="64" viewBox="0 0 75 64" fill="none" xmlns="http://www.w3.org/2000/svg">
<path d="M54.9116 19.5174C51.6213 19.5146 48.3809 20.3228 45.4773 21.8705C42.5736 23.4182 40.0962 25.6577 38.2641 28.3909C40.4172 23.6851 40.6664 18.3288 38.9595 13.4434C37.2527 8.55799 33.7222 4.52223 29.1072 2.18097C24.4921 -0.16028 19.1502 -0.625503 14.1999 0.882693C9.24957 2.39089 5.07457 5.75557 2.54891 10.2724C0.023244 14.7892 -0.657262 20.1079 0.649852 25.115C1.95697 30.1222 5.15036 34.4297 9.5615 37.1356C13.9726 39.8416 19.2595 40.7362 24.3154 39.6324C29.3713 38.5285 33.8041 35.5116 36.686 31.2133C35.4823 33.8323 34.8603 36.681 34.8628 39.5634V63.2557H44.9721V56.9708C47.6381 58.4896 50.6173 59.376 53.6799 59.5616C56.7425 59.7472 59.8069 59.2271 62.6368 58.0414C65.4667 56.8557 67.9866 55.036 70.0022 52.7226C72.0177 50.4093 73.4752 47.6639 74.2622 44.6983C75.0493 41.7327 75.1448 38.626 74.5415 35.6176C73.9383 32.6092 72.6523 29.7795 70.7827 27.3467C68.9131 24.9138 66.5099 22.9427 63.7582 21.5853C61.0065 20.2278 57.9799 19.5204 54.9116 19.5174V19.5174ZM20.044 29.983C18.0787 29.9841 16.1573 29.4024 14.5226 28.3115C12.8879 27.2205 11.6134 25.6693 10.8603 23.854C10.1072 22.0388 9.90928 20.0409 10.2916 18.1132C10.6739 16.1854 11.6193 14.4143 13.0082 13.0239C14.3971 11.6334 16.1671 10.6861 18.0945 10.3016C20.0218 9.91709 22.0198 10.1127 23.836 10.8638C25.6521 11.6149 27.2047 12.8876 28.2975 14.5211C29.3902 16.1546 29.9741 18.0754 29.9752 20.0407C29.9759 21.3456 29.7196 22.6379 29.2209 23.8438C28.7222 25.0496 27.9909 26.1454 27.0687 27.0687C26.1465 27.9919 25.0515 28.7244 23.8462 29.2245C22.6409 29.7245 21.349 29.9823 20.044 29.983V29.983ZM54.9172 49.5002C52.9514 49.5002 51.0297 48.9172 49.3951 47.8251C47.7606 46.7329 46.4866 45.1806 45.7343 43.3643C44.982 41.5481 44.7852 39.5496 45.1687 37.6216C45.5522 35.6935 46.4988 33.9224 47.8889 32.5324C49.279 31.1423 51.05 30.1957 52.9781 29.8121C54.9062 29.4286 56.9047 29.6255 58.7209 30.3778C60.5371 31.1301 62.0894 32.404 63.1816 34.0386C64.2738 35.6731 64.8567 37.5948 64.8567 39.5607C64.8567 40.8664 64.5994 42.1594 64.0996 43.3656C63.5997 44.5719 62.8671 45.6679 61.9435 46.5909C61.02 47.514 59.9236 48.246 58.717 48.7452C57.5105 49.2443 56.2174 49.5009 54.9116 49.5002H54.9172Z" fill="#005BAA"/>
<path d="M54.9119 19.5167C51.6971 19.5152 48.5292 20.2879 45.6761 21.7694C42.823 23.2509 40.3686 25.3977 38.5205 28.0283C42.5195 26.0846 47.0514 25.526 51.4027 26.4405C55.754 27.355 59.6777 29.6906 62.556 33.0796C65.4342 36.4686 67.1037 40.7187 67.3016 45.1606C67.4995 49.6026 66.2145 53.9842 63.649 57.6158C67.7443 55.6453 71.0482 52.3413 73.0187 48.246C74.9891 44.1507 75.5091 39.5073 74.4932 35.0776C73.4774 30.6478 70.9861 26.695 67.428 23.8675C63.87 21.04 59.4566 19.5058 54.9119 19.5167Z" fill="url(#paint0_linear)"/>
<path d="M20.0438 1.46438e-05C15.6274 -0.00533318 11.3339 1.45421 7.8358 4.15006C6.05552 8.2243 5.68068 12.7749 6.77029 17.0855C7.8599 21.3962 10.3521 25.2221 13.8546 27.961C17.357 30.6999 21.6709 32.1963 26.117 32.2146C30.5632 32.2329 34.8893 30.7722 38.4142 28.0622C39.7465 25.0119 40.2981 21.6778 40.0192 18.361C39.7402 15.0441 38.6395 11.849 36.8164 9.06411C34.9934 6.27921 32.5053 3.99226 29.577 2.40978C26.6487 0.827289 23.3723 -0.000893474 20.0438 1.46438e-05V1.46438e-05ZM20.0438 29.9827C18.0785 29.9839 16.157 29.4021 14.5223 28.3112C12.8876 27.2203 11.6131 25.6691 10.86 23.8538C10.1069 22.0385 9.90901 20.0407 10.2913 18.1129C10.6737 16.1852 11.6191 14.4141 13.008 13.0236C14.3968 11.6332 16.1669 10.6858 18.0942 10.3013C20.0215 9.91684 22.0196 10.1125 23.8357 10.8636C25.6518 11.6146 27.2044 12.8874 28.2972 14.5209C29.39 16.1543 29.9738 18.0752 29.9749 20.0405C29.9757 21.3454 29.7194 22.6376 29.2207 23.8435C28.722 25.0494 27.9907 26.1452 27.0685 27.0684C26.1463 27.9916 25.0513 28.7242 23.846 29.2242C22.6407 29.7243 21.3487 29.982 20.0438 29.9827V29.9827Z" fill="url(#paint1_linear)"/>
<defs>
<linearGradient id="paint0_linear" x1="46.5757" y1="23.4886" x2="70.4238" y2="45.1712" gradientUnits="userSpaceOnUse">
<stop offset="0.2" stop-color="#002F67"/>
<stop offset="1" stop-color="#005BAA"/>
</linearGradient>
<linearGradient id="paint1_linear" x1="14.605" y1="10.1984" x2="38.5756" y2="26.8208" gradientUnits="userSpaceOnUse">
<stop stop-color="#005BAA"/>
<stop offset="1" stop-color="#002F67"/>
</linearGradient>
</defs>
</svg>
