<svg width="208" height="150" viewBox="0 0 208 150" fill="none" xmlns="http://www.w3.org/2000/svg">
<g clip-path="url(#clip0)">
<path d="M18.6544 72.8457C29.6599 72.8457 37.3039 80.8009 37.3039 91.8098C37.3039 102.819 29.6599 110.774 18.6544 110.774C7.64887 110.774 0 102.824 0 91.8098C0 80.796 7.64404 72.8457 18.6544 72.8457ZM18.6544 107.715C28.078 107.715 33.9425 100.783 33.9425 91.7953C33.9425 82.8078 28.078 75.8753 18.6544 75.8753C9.23073 75.8753 3.37592 82.8367 3.37592 91.8098C3.37592 100.783 9.22108 107.715 18.6544 107.715Z" fill="black"/>
<path d="M42.9658 73.7617H53.3637C58.8664 73.7617 64.9816 75.1366 64.9816 83.2944C64.9816 86.9657 62.7921 89.9229 58.5095 90.7913V90.8926C63.2503 91.2496 66.5635 94.7134 66.5635 99.7595C66.5635 108.072 59.3776 109.857 54.4825 109.857H42.9658V73.7617ZM46.3417 89.3633H53.3202C60.3036 89.3633 61.6298 85.5377 61.6298 83.2944C61.6298 78.2483 58.061 76.8203 53.7784 76.8203H46.3321L46.3417 89.3633ZM46.3417 106.798H54.0581C61.953 106.798 63.2213 102.413 63.2213 99.8657C63.2213 94.5108 58.8375 92.4219 54.5404 92.4219H46.3417V106.798Z" fill="black"/>
<path d="M72.3408 73.7617H81.8223C84.6774 73.7617 94.6653 73.7617 94.6653 83.2462C94.6653 90.1255 89.4133 92.0166 85.4394 92.5232L95.9385 109.857H92.1141L81.9863 92.7258H75.7167V109.857H72.3408V73.7617ZM75.7167 89.6817H82.8496C89.9342 89.6817 91.3087 85.7548 91.3087 83.2606C91.3087 80.7665 89.9342 76.8348 82.8496 76.8348H75.6878L75.7167 89.6817Z" fill="black"/>
<path d="M115.182 73.7617H118.64L133.827 109.857H130.055L126.129 100.271H107.031L102.951 109.857H99.4355L115.182 73.7617ZM116.764 77.433L108.353 97.2123H124.909L116.764 77.433Z" fill="black"/>
<path d="M4.66388 112.988H15.0617C20.1545 112.988 26.6797 114.976 26.6797 122.521C26.6797 129.048 21.4808 131.952 15.8237 131.952H8.02533V149.069H4.64941L4.66388 112.988ZM8.0398 128.908H15.6694C19.4938 128.908 23.3182 127.278 23.3182 122.535C23.3182 117.895 19.3395 116.061 15.4668 116.061H8.02533L8.0398 128.908Z" fill="black"/>
<path d="M32.8955 112.988H42.377C45.2273 112.988 55.22 112.988 55.22 122.468C55.22 129.352 49.968 131.238 45.9941 131.75L56.4932 149.069H52.6687L42.541 131.943H36.2714V149.069H32.8955V112.988ZM36.2714 128.908H43.4043C50.4889 128.908 51.8682 124.981 51.8682 122.482C51.8682 119.983 50.4792 116.047 43.4043 116.047H36.2618L36.2714 128.908Z" fill="black"/>
<path d="M78.4083 112.066C89.4187 112.066 97.0627 120.022 97.0627 131.035C97.0627 142.049 89.4187 149.999 78.4083 149.999C67.398 149.999 59.7588 142.044 59.7588 131.035C59.7588 120.026 67.398 112.066 78.4083 112.066ZM78.4083 146.941C87.8368 146.941 93.6964 140.004 93.6964 131.021C93.6964 122.038 87.8368 115.101 78.4083 115.101C68.9799 115.101 63.1202 122.033 63.1202 131.021C63.1202 140.008 68.9654 146.941 78.4083 146.941V146.941Z" fill="black"/>
<path d="M103.588 112.988H107.928L129.896 144.597H129.997V112.988H133.373V149.069H129.033L107.065 117.47H106.959V149.069H103.583L103.588 112.988Z" fill="black"/>
<path d="M150.87 116.047H138.538V112.988H166.568V116.047H154.231V149.069H150.855L150.87 116.047Z" fill="black"/>
<path d="M178.056 112.988H181.518L196.705 149.069H192.934L189.013 139.488H169.901L165.82 149.069H162.305L178.056 112.988ZM179.633 116.66L171.227 136.439H187.788L179.633 116.66Z" fill="black"/>
<path d="M173.267 33.8275C167.565 33.8226 161.951 35.2234 156.92 37.906C151.889 40.5885 147.596 44.47 144.422 49.2072C148.152 41.0509 148.584 31.7673 145.627 23.2998C142.669 14.8324 136.552 7.83749 128.556 3.77959C120.559 -0.278319 111.303 -1.08465 102.726 1.52938C94.1486 4.14342 86.9147 9.97516 82.5385 17.8038C78.1623 25.6324 76.9832 34.8508 79.2481 43.5294C81.5129 52.2079 87.046 59.6737 94.6891 64.3637C102.332 69.0537 111.493 70.6044 120.253 68.6911C129.013 66.7778 136.694 61.5488 141.687 54.0989C139.602 58.6383 138.524 63.5758 138.528 68.5716V109.636H156.045V98.7424C160.664 101.375 165.826 102.911 171.132 103.233C176.439 103.555 181.749 102.653 186.652 100.598C191.555 98.5429 195.921 95.389 199.414 91.3794C202.906 87.3698 205.431 82.6116 206.795 77.4715C208.159 72.3315 208.324 66.9468 207.279 61.7326C206.234 56.5185 204.005 51.614 200.766 47.3973C197.527 43.1805 193.363 39.7642 188.595 37.4115C183.827 35.0588 178.583 33.8326 173.267 33.8275V33.8275ZM112.852 51.9666C109.447 51.9685 106.117 50.9603 103.285 49.0695C100.453 47.1786 98.2444 44.4901 96.9395 41.3438C95.6346 38.1975 95.2917 34.7348 95.9542 31.3936C96.6166 28.0524 98.2547 24.9827 100.661 22.5728C103.068 20.1628 106.135 18.5208 109.474 17.8544C112.813 17.188 116.275 17.5271 119.422 18.8289C122.569 20.1306 125.259 22.3366 127.153 25.1678C129.046 27.9989 130.058 31.3282 130.06 34.7344C130.061 36.9961 129.617 39.2359 128.753 41.326C127.889 43.416 126.621 45.3153 125.024 46.9154C123.426 48.5156 121.528 49.7853 119.44 50.6519C117.352 51.5186 115.113 51.9654 112.852 51.9666V51.9666ZM173.276 85.7942C169.87 85.7942 166.54 84.7838 163.708 82.8908C160.876 80.9979 158.669 78.3073 157.365 75.1594C156.062 72.0116 155.721 68.5477 156.385 65.2059C157.05 61.8642 158.69 58.7945 161.098 56.3852C163.507 53.976 166.576 52.3352 169.916 51.6705C173.257 51.0058 176.72 51.3469 179.867 52.6508C183.014 53.9547 185.703 56.1628 187.596 58.9958C189.488 61.8288 190.498 65.1596 190.498 68.5668C190.498 70.83 190.052 73.0709 189.186 75.1617C188.32 77.2524 187.051 79.152 185.451 80.7518C183.85 82.3516 181.951 83.6204 179.86 84.4856C177.769 85.3508 175.529 85.7954 173.267 85.7942H173.276Z" fill="#005BAA"/>
<path d="M173.267 33.8272C167.697 33.8247 162.208 35.1639 157.265 37.7317C152.321 40.2996 148.068 44.0205 144.866 48.5798C151.795 45.2109 159.648 44.2428 167.187 45.8278C174.726 47.4128 181.525 51.4609 186.512 57.3348C191.499 63.2088 194.392 70.575 194.735 78.2739C195.078 85.9728 192.851 93.5671 188.406 99.8614C195.502 96.4461 201.226 90.7196 204.641 83.6215C208.055 76.5235 208.956 68.4754 207.195 60.7977C205.435 53.12 201.119 46.2688 194.954 41.3682C188.789 36.4675 181.142 33.8084 173.267 33.8272Z" fill="url(#paint0_linear)"/>
<path d="M112.853 2.53808e-05C105.2 -0.00924357 97.7611 2.52046 91.7 7.19296C88.6153 14.2545 87.9658 22.1417 89.8538 29.613C91.7417 37.0843 96.0599 43.7154 102.129 48.4626C108.197 53.2097 115.672 55.8033 123.376 55.835C131.079 55.8668 138.575 53.3349 144.683 48.638C146.991 43.3512 147.947 37.5725 147.464 31.8236C146.98 26.0748 145.073 20.5369 141.914 15.7101C138.755 10.8833 134.444 6.91947 129.371 4.17667C124.297 1.43387 118.62 -0.00154859 112.853 2.53808e-05V2.53808e-05ZM112.853 51.9667C109.447 51.9686 106.118 50.9604 103.286 49.0695C100.453 47.1787 98.2449 44.4901 96.94 41.3439C95.6351 38.1976 95.2922 34.7349 95.9546 31.3937C96.6171 28.0525 98.2552 24.9828 100.662 22.5728C103.068 20.1629 106.135 18.5209 109.475 17.8545C112.814 17.1881 116.276 17.5272 119.423 18.829C122.569 20.1307 125.26 22.3367 127.153 25.1678C129.047 27.999 130.058 31.3282 130.06 34.7345C130.061 36.9962 129.617 39.236 128.753 41.326C127.889 43.4161 126.622 45.3154 125.024 46.9155C123.426 48.5157 121.529 49.7853 119.441 50.652C117.352 51.5187 115.114 51.9654 112.853 51.9667V51.9667Z" fill="url(#paint1_linear)"/>
</g>
<defs>
<linearGradient id="paint0_linear" x1="158.823" y1="40.7114" x2="200.156" y2="78.2795" gradientUnits="userSpaceOnUse">
<stop offset="0.2" stop-color="#002F67"/>
<stop offset="1" stop-color="#005BAA"/>
</linearGradient>
<linearGradient id="paint1_linear" x1="103.429" y1="17.676" x2="144.971" y2="46.4743" gradientUnits="userSpaceOnUse">
<stop stop-color="#005BAA"/>
<stop offset="1" stop-color="#002F67"/>
</linearGradient>
<clipPath id="clip0">
<rect width="208" height="150" fill="white"/>
</clipPath>
</defs>
</svg>
